<svg xmlns="http://www.w3.org/2000/svg" xmlns:xlink="http://www.w3.org/1999/xlink" viewBox="0 0 89.61 144.5"><defs><style>.cls-1,.cls-10,.cls-2,.cls-3,.cls-4,.cls-5,.cls-6,.cls-7,.cls-8,.cls-9{fill-rule:evenodd;}.cls-1{fill:url(#New_Gradient_Swatch_5);}.cls-2{fill:url(#New_Gradient_Swatch_5-2);}.cls-3{fill:url(#New_Gradient_Swatch_6);}.cls-4{fill:url(#New_Gradient_Swatch_6-2);}.cls-5{fill:url(#New_Gradient_Swatch_6-3);}.cls-6{fill:url(#New_Gradient_Swatch_6-4);}.cls-7{fill:url(#New_Gradient_Swatch_3);}.cls-8{fill:url(#New_Gradient_Swatch_3-2);}.cls-9{fill:url(#New_Gradient_Swatch_9);}.cls-10{fill:url(#New_Gradient_Swatch_9-2);}</style><radialGradient id="New_Gradient_Swatch_5" cx="53.14" cy="132.85" r="41.76" gradientTransform="translate(8.39 11.12) scale(0.87 0.84)" gradientUnits="userSpaceOnUse"><stop offset="0" stop-color="#fff"/><stop offset="0.5" stop-color="#31b1e7"/><stop offset="1" stop-color="#323390"/></radialGradient><radialGradient id="New_Gradient_Swatch_5-2" cx="10.88" cy="98.06" r="31.06" xlink:href="#New_Gradient_Swatch_5"/><linearGradient id="New_Gradient_Swatch_6" x1="-19.04" y1="99.5" x2="67.63" y2="99.5" gradientTransform="matrix(1, 0, 0, 1, 0, 0)" xlink:href="#New_Gradient_Swatch_5"/><linearGradient id="New_Gradient_Swatch_6-2" x1="-27.65" y1="99.5" x2="85.44" y2="99.5" gradientTransform="matrix(1, 0, 0, 1, 0, 0)" xlink:href="#New_Gradient_Swatch_5"/><linearGradient id="New_Gradient_Swatch_6-3" x1="-29.9" y1="40.4" x2="86.32" y2="40.4" gradientTransform="matrix(1, 0, 0, 1, 0, 0)" xlink:href="#New_Gradient_Swatch_5"/><linearGradient id="New_Gradient_Swatch_6-4" x1="-48.97" y1="40.4" x2="119.77" y2="40.4" gradientTransform="matrix(1, 0, 0, 1, 0, 0)" xlink:href="#New_Gradient_Swatch_5"/><linearGradient id="New_Gradient_Swatch_3" x1="205.17" y1="37.44" x2="0.61" y2="37.44" gradientUnits="userSpaceOnUse"><stop offset="0" stop-color="#fff"/><stop offset="1" stop-color="#fff" stop-opacity="0"/></linearGradient><linearGradient id="New_Gradient_Swatch_3-2" x1="139.98" y1="-11.32" x2="14.27" y2="102.29" xlink:href="#New_Gradient_Swatch_3"/><linearGradient id="New_Gradient_Swatch_9" x1="9.89" y1="59.45" x2="20.07" y2="71.07" gradientUnits="userSpaceOnUse"><stop offset="0"/><stop offset="1" stop-opacity="0"/></linearGradient><linearGradient id="New_Gradient_Swatch_9-2" x1="10.48" y1="99.37" x2="34.31" y2="118.96" xlink:href="#New_Gradient_Swatch_9"/></defs><g id="Capa_2" data-name="Capa 2"><g id="Layer_1" data-name="Layer 1"><path class="cls-1" d="M36.59,117.37C27.11,112.6,13.87,104.44,26,96.66c-15,9.26-14.18,25.67,4.85,47.84l8.67-20.09C40.7,121.74,39.47,118.82,36.59,117.37Z"/><path class="cls-2" d="M.24,80.8a85.64,85.64,0,0,0,4.84,20.49C3.85,89,10.21,80.38,19.58,74.12,15.94,61.76,23,58.33,35.75,55.22,20.79,58.6,1.71,63.92.24,80.8Z"/><path class="cls-3" d="M23.41,75.69C10.16,84.21,2.48,97.11,12.57,118.2a100.68,100.68,0,0,0,18.3,26.3C11.84,122.32,11,105.91,26,96.66c9.94-6.12,25-7.11,35-11.2,10.58-4.32,19.53-19.34,18-31C70.25,66.72,42.92,63.15,23.41,75.69Z"/><path class="cls-4" d="M23.41,75.69C10.16,84.21,2.48,97.11,12.57,118.2a100.68,100.68,0,0,0,18.3,26.3c-19-22.18-20.81-40.55-5.79-49.8,10-6.13,24.71-8.29,34.72-12.38C70.37,78,80.54,66.12,79,54.5,70.25,66.72,42.92,63.15,23.41,75.69Z"/><path class="cls-5" d="M2.18,62.56C.14,68-.37,74.22.24,80.8,1.71,63.92,20.79,58.6,35.75,55.22c12.21-2.76,25.9-3.49,37.41-9.81,15.64-8.57,17.5-29,16-45.41C70.9,26.15,16.54,24.43,2.18,62.56Z"/><path class="cls-6" d="M2.18,62.56C.14,68-.37,74.22.24,80.8,1.71,63.92,19.71,54.41,34.67,51c12.21-2.75,25.9-3.49,37.41-9.81C87.72,32.65,90.66,16.38,89.2,0,70.9,26.15,16.54,24.43,2.18,62.56Z"/><path class="cls-7" d="M39,30.75C20.36,39.37,4.34,51.61,2,70.5,15.16,36.63,87.78,43.43,87.78,4.37,76.26,17.07,55.19,23.27,39,30.75Z"/><path class="cls-8" d="M14.16,117.65c-17.9-47.1,55.66-30.33,63.25-59.18-11.67,9.5-36.6,7.87-53,18.39C7.78,87.57,6.52,101.67,14.16,117.65Z"/><path class="cls-9" d="M10.65,82.1a38.68,38.68,0,0,1,8.93-8c-2.75-9.32.6-13.56,7.87-16.42C7.88,62.16,11,74.58,10.65,82.1Z"/><path class="cls-10" d="M36.59,117.37c-8.51-4.28-20.06-11.3-13.52-18.32-11.1,9.67-3,19.5,13.47,32.32l3-7C40.7,121.74,39.47,118.82,36.59,117.37Z"/></g></g></svg>