<svg width="233" height="30" viewBox="0 0 233 30" fill="none" xmlns="http://www.w3.org/2000/svg">
<g clip-path="url(#clip0)">
<path d="M185.207 25.7954H180.042V25.0157C180.042 21.7925 180.042 18.5694 180.042 15.3462C180.042 13.422 179.156 12.4558 177.27 12.3213C176.218 12.2158 175.157 12.3703 174.177 12.7717C174.723 16.9191 174.333 21.0514 174.449 25.1703C174.449 25.3568 174.426 25.5434 174.412 25.7719H169.309V24.9149C169.309 21.8116 169.309 18.7083 169.309 15.605C169.309 13.3195 168.384 12.36 166.13 12.2843C163.777 12.2054 163.74 12.2406 163.74 14.5916V25.7534H158.492V24.9905C158.492 20.2515 158.492 15.5126 158.528 10.7736C158.528 10.4711 158.683 10.019 158.909 9.88965C162.099 8.05624 165.504 7.33532 169.116 8.19068C170.011 8.40242 170.841 8.95866 171.654 9.4376C172.011 9.64598 172.23 9.67455 172.593 9.47457C175.249 8.00415 178.046 7.35212 181.033 8.17724C183.855 8.9553 185.206 10.8055 185.207 13.7581C185.207 17.4619 185.207 21.1663 185.207 24.8712V25.7954Z" fill="white"/>
<path d="M49.3513 12.9397C49.7894 13.1078 50.0998 13.2254 50.4035 13.3565C52.3952 14.2152 53.504 15.7394 53.7413 17.914C54.0202 20.4565 53.1322 22.4883 51.0857 23.9788C49.4497 25.1636 47.4887 25.8005 45.4774 25.8005C42.6259 25.8391 39.7745 25.8156 36.923 25.8156C36.7723 25.8029 36.6225 25.7799 36.4749 25.7467V2.99128C39.8525 2.55939 43.1819 1.93762 46.5662 2.54595C47.9278 2.78246 49.2188 3.32828 50.3421 4.14241C53.0591 6.10353 53.5405 10.9853 49.6782 12.7431C49.6019 12.7717 49.5305 12.8339 49.3513 12.9397ZM41.7429 21.3422C42.9529 21.3422 44.0433 21.3741 45.1305 21.327C45.6262 21.3036 46.1146 21.1974 46.5761 21.0128C47.6981 20.5624 48.1662 19.6852 48.0699 18.361C47.9952 17.267 47.406 16.4385 46.2591 16.2688C44.8135 16.0453 43.3197 16.0486 41.7977 15.9646C41.7711 16.3125 41.7446 16.499 41.7446 16.6855C41.7413 18.2064 41.7429 19.7373 41.7429 21.3422ZM41.7429 11.5449C42.9562 11.5449 44.0965 11.6559 45.2068 11.5181C46.5795 11.35 47.2085 10.5282 47.2185 9.25444C47.2284 7.98064 46.5164 7.05805 45.2002 6.87824C44.1811 6.7438 43.1305 6.83623 42.0965 6.87824C41.9736 6.87824 41.7645 7.18745 41.7645 7.35718C41.7313 8.73853 41.7429 10.1317 41.7429 11.5382V11.5449Z" fill="white"/>
<path d="M194.092 1.46375V9.78718C194.517 9.4931 194.816 9.26959 195.131 9.07298C197.773 7.42442 200.48 7.3656 203.168 8.89316C204.827 9.83255 205.669 11.4273 206.077 13.2456C206.621 15.5538 206.501 17.9711 205.734 20.2129C204.55 23.6478 202.042 25.4997 198.577 26.0173C195.496 26.4761 192.469 26.0677 189.511 25.093C189.033 24.9351 188.847 24.7099 188.847 24.1788C188.867 17.3695 188.867 10.5608 188.847 3.75256C188.847 3.24842 189.013 2.96946 189.451 2.75268C190.9 2.04351 192.389 1.55113 194.092 1.46375ZM194.092 17.2469C194.092 18.5677 194.109 19.8886 194.082 21.2094C194.082 21.643 194.238 21.8346 194.638 21.848C195.584 21.8766 196.537 21.9707 197.476 21.9035C198.947 21.7976 199.984 20.9725 200.62 19.6399C201.274 18.2686 201.334 16.815 201.09 15.3462C200.814 13.6859 199.815 12.6154 198.188 12.4323C197.038 12.3045 195.848 12.5281 194.678 12.6272C194.231 12.6642 194.07 12.9633 194.08 13.4288C194.107 14.7009 194.089 15.9747 194.089 17.2469H194.092Z" fill="white"/>
<path d="M126.386 17.4351C126.299 20.3928 125.234 23.2429 122.183 25.0074C118.407 27.192 112.854 26.3013 110.201 23.174C107.244 19.687 107.189 11.9366 112.376 9.00244C116.047 6.92536 122.449 7.27154 125.093 11.8458C126.017 13.444 126.382 15.1849 126.386 17.4351ZM121.172 17.0116L121.26 16.978C121.076 16.1663 120.985 15.3194 120.691 14.5497C120.113 13.0373 118.832 12.2911 117.124 12.3449C115.547 12.392 114.346 13.249 113.805 14.7278C113.413 15.8421 113.315 17.0404 113.519 18.2048C113.836 20.3222 115.122 21.5657 117.103 21.6111C119.279 21.6682 120.588 20.6163 121.005 18.4384C121.091 17.9695 121.116 17.4872 121.172 17.0116Z" fill="white"/>
<path d="M155.816 17.8132C155.805 19.1122 155.495 20.3906 154.912 21.5476C154.328 22.7045 153.487 23.7083 152.455 24.4797C149.033 27.0794 141.854 27.0441 138.973 22.2279C136.626 18.2989 137.428 12.5365 140.724 9.7654C144.336 6.74053 151.982 6.89345 154.734 12.1735C155.429 13.5078 155.823 15.1614 155.816 17.8132ZM142.792 16.9932C142.94 17.7645 143.016 18.5342 143.24 19.2585C143.68 20.6818 144.9 21.5406 146.414 21.6111C148.271 21.6935 149.509 21.0297 150.12 19.5341C150.784 17.8855 150.764 16.2033 150.158 14.543C150.009 14.1633 149.791 13.8151 149.516 13.5162C147.69 11.456 144.113 12.1819 143.227 14.8069C142.993 15.4942 142.935 16.247 142.792 16.9898V16.9932Z" fill="white"/>
<path d="M218.507 9.24274C220.304 8.50837 222.112 7.95885 223.984 7.92188C225.522 7.86971 227.061 8.00341 228.568 8.32016C231.287 8.94361 232.846 10.9199 232.929 13.7397C233.023 17.0066 232.988 20.2785 232.972 23.5487C232.95 23.7042 232.897 23.8535 232.816 23.9872C232.734 24.1208 232.626 24.2359 232.499 24.3251C230.937 25.3687 229.156 25.7989 227.332 26.0173C225.375 26.2509 223.407 26.3954 221.45 25.9367C218.96 25.3502 217.503 23.9201 217.287 21.8161C217.041 19.3996 218.25 17.3023 220.524 16.2487C222.479 15.3429 224.573 15.0891 226.691 14.9564C226.998 14.9362 227.307 14.9278 227.616 14.9043C227.681 14.8883 227.742 14.861 227.798 14.8236C227.949 13.2675 227.264 12.2676 225.787 12.1853C224.604 12.144 223.419 12.2154 222.25 12.3987C220.072 12.6945 219.524 12.3987 218.827 10.2964C218.724 9.96031 218.625 9.62085 218.507 9.24274ZM227.913 18.3174C227.083 18.3174 226.311 18.2132 225.589 18.3426C224.712 18.4979 223.859 18.7679 223.051 19.1458C222.427 19.4399 222.25 20.1088 222.351 20.8146C222.452 21.5204 222.874 21.927 223.538 22.0699C224.897 22.364 226.223 22.285 227.471 21.6195C227.657 21.522 227.893 21.2952 227.899 21.1154C227.936 20.1844 227.913 19.2551 227.913 18.3174Z" fill="white"/>
<path d="M66.0466 14.8707C66.1794 13.2154 65.5022 12.229 63.9637 12.1819C62.5529 12.1382 61.1321 12.3684 59.718 12.4962C58.4831 12.6087 58.0051 12.3617 57.4508 11.2274C57.2718 10.836 57.1128 10.4355 56.9744 10.0275C56.8848 9.78385 56.8234 9.52338 56.7321 9.2293C60.206 7.90844 63.6881 7.29842 67.2798 8.44115C69.7097 9.21249 71.0375 11.0089 71.1355 13.5179C71.2765 16.8789 71.2118 20.2499 71.1902 23.6159C71.1902 23.8865 70.8799 24.2444 70.6193 24.4074C69.1388 25.3283 67.489 25.772 65.7794 25.9871C63.6998 26.2476 61.5985 26.4677 59.552 25.8812C58.6192 25.614 57.6433 25.1804 56.918 24.5503C54.679 22.6009 55.1337 18.6686 57.7263 16.8604C59.386 15.7059 61.2931 15.3328 63.2383 15.1059C64.1744 14.995 65.1172 14.9463 66.0466 14.8707ZM66.1562 18.2787C65.4093 18.2787 64.7686 18.2451 64.1346 18.2905C63.5901 18.3117 63.0503 18.4021 62.528 18.5593C62.0018 18.7274 61.4441 18.9694 61.0342 19.334C60.1296 20.1491 60.445 21.675 61.5869 22.0077C62.2698 22.2181 62.987 22.2899 63.6973 22.219C64.4077 22.148 65.0972 21.9358 65.7263 21.5943C65.8325 21.5315 65.924 21.4464 65.9947 21.3446C66.0655 21.2428 66.1138 21.1268 66.1363 21.0044C66.1827 20.1239 66.1562 19.2399 66.1562 18.2787Z" fill="white"/>
<path d="M74.4336 25.819C74.4336 24.5116 74.4336 23.3369 74.4336 22.1606C74.4336 18.3593 74.4519 14.5581 74.4336 10.7568C74.4336 10.2661 74.5564 9.96867 75.0112 9.74853C78.4668 8.04619 82.0751 7.33367 85.8643 8.19912C87.8394 8.65117 89.4776 9.69139 90.2145 11.755C90.3625 12.1874 90.4377 12.6418 90.4369 13.0994C90.4552 17.1662 90.4486 21.2313 90.4469 25.2964C90.4469 25.4375 90.4237 25.5787 90.4087 25.7719H85.2635V24.9065C85.2635 21.7539 85.2635 18.6024 85.2635 15.4521C85.2635 13.4271 84.349 12.4272 82.349 12.3247C81.6668 12.2911 80.978 12.4071 80.2909 12.4289C79.7232 12.4457 79.6087 12.7482 79.6104 13.2691C79.6286 17.1662 79.6104 21.0632 79.6369 24.9603C79.6369 25.6577 79.4593 25.8694 78.7656 25.8425C77.3614 25.782 75.939 25.819 74.4336 25.819Z" fill="white"/>
<path d="M0 18.235C0.0514525 17.4452 0.416599 16.9646 1.10374 16.6621C6.24 14.3959 11.5926 12.67 17.0772 11.5114C19.9569 10.9081 22.8715 10.4779 25.771 9.9788C26.5063 9.85276 27.0557 10.125 27.3096 10.819C27.7412 12.0122 28.1395 13.2204 28.493 14.4422C28.7155 15.2269 28.3636 15.6639 27.5586 15.7865C18.9279 17.1998 10.5527 19.5256 2.55769 23.1639C1.46059 23.668 0.994195 23.4193 0.755189 22.2094C0.497927 20.8835 0.245644 19.5374 0 18.235Z" fill="white"/>
<path d="M106.236 21.0632C106.505 22.2614 106.809 23.6108 107.151 25.1317C106.07 25.414 105.014 25.7383 103.939 25.9618C102.116 26.3577 100.224 26.2768 98.4401 25.7266C95.6783 24.8661 93.9073 23.0092 93.1521 20.181C92.6538 18.3379 92.6298 16.3964 93.0824 14.5413C93.8741 11.2593 95.9588 9.19563 99.1256 8.25288C101.781 7.46305 104.429 7.73193 107.124 8.389C106.938 9.83085 106.498 11.1315 105.63 12.2541C105.506 12.4222 105.122 12.4726 104.89 12.4222C103.725 12.1639 102.517 12.1812 101.36 12.4726C99.67 12.9229 98.6476 14.0153 98.4119 15.7764C98.3119 16.4638 98.3013 17.1616 98.3804 17.8518C98.6808 20.1255 100.015 21.3892 102.294 21.4262C103.569 21.448 104.865 21.1993 106.236 21.0632Z" fill="white"/>
<path d="M134.606 25.7821H129.395V25.0763C129.395 17.9802 129.391 10.8835 129.383 3.78624C129.383 3.28209 129.516 2.99137 129.962 2.76955C131.421 2.0503 132.93 1.5512 134.61 1.46045L134.606 25.7821Z" fill="white"/>
<path d="M21.7197 1.23022C21.9637 1.44029 22.4948 1.689 22.6774 2.09735C23.1997 3.30651 23.6568 4.54349 24.0467 5.80282C24.3123 6.62458 23.8807 7.06487 22.8749 7.26316C18.9861 8.02778 15.0956 8.78568 11.2184 9.61584C9.78108 9.92001 8.37693 10.3855 6.96115 10.7922C5.75285 11.1384 5.31965 10.8964 5.0043 9.66121C4.74427 8.63164 4.48867 7.6043 4.23749 6.57921C3.94372 5.39278 4.27069 4.77605 5.39932 4.45339C9.70021 3.23916 14.0754 2.31289 18.4965 1.68059C19.484 1.53103 20.4716 1.40163 21.7197 1.23022Z" fill="white"/>
<path d="M26.0349 19.2449C26.3147 19.227 26.5923 19.3062 26.8219 19.4693C27.0514 19.6324 27.2193 19.8697 27.2979 20.1423C27.7096 21.3422 28.083 22.5588 28.4315 23.7789C28.6473 24.5368 28.3154 24.9165 27.4208 25.177C23.3267 26.3724 19.2326 27.5779 15.1386 28.7934C14.0929 29.106 13.0755 29.506 12.0398 29.8521C10.9427 30.2185 10.3518 29.916 10.0481 28.822C9.72609 27.6675 9.40907 26.5113 9.11696 25.3484C8.91115 24.5267 9.21986 23.9116 10.0082 23.6411C15.1745 21.8744 20.4396 20.4193 25.7759 19.2836C25.8639 19.2634 25.9602 19.255 26.0349 19.2449Z" fill="white"/>
<path d="M214.568 25.777H209.438C209.423 25.5048 209.4 25.2729 209.4 25.0376C209.4 19.7038 209.4 14.3682 209.383 9.03438C209.383 8.43613 209.561 8.16389 210.12 8.04625C211.466 7.76393 212.809 7.71016 214.125 8.14708C214.338 8.21766 214.61 8.55376 214.61 8.76886C214.635 14.3145 214.628 19.8701 214.625 25.4208C214.614 25.5407 214.595 25.6597 214.568 25.777Z" fill="white"/>
<path d="M214.69 2.66357C214.701 3.0265 214.64 3.38807 214.512 3.727C214.383 4.06593 214.189 4.37539 213.94 4.63718C213.692 4.89897 213.394 5.10781 213.065 5.25142C212.735 5.39502 212.381 5.4705 212.022 5.47342C211.663 5.47633 211.308 5.40662 210.976 5.26838C210.645 5.13014 210.344 4.92616 210.091 4.66844C209.838 4.41072 209.639 4.10446 209.505 3.76766C209.371 3.43087 209.305 3.07033 209.31 2.70726C209.323 1.99272 209.609 1.31112 210.109 0.8061C210.608 0.301077 211.282 0.0120755 211.988 -8.91538e-07C212.694 -0.00675914 213.374 0.269407 213.88 0.768323C214.387 1.26724 214.677 1.94847 214.69 2.66357Z" fill="white"/>
</g>
<defs>
<clipPath id="clip0">
<rect width="233" height="30" fill="white"/>
</clipPath>
</defs>
</svg>
