<svg width="131" height="32" viewBox="0 0 131 32" fill="none" xmlns="http://www.w3.org/2000/svg">
<path opacity="0.51" d="M12.3099 28.9018C12.3099 28.9018 14.785 33.3732 18.2029 29.5665C18.3938 29.3562 18.5942 29.1314 18.8016 28.8994C17.3425 28.126 12.6729 25.6462 8.45117 23.3405C10.5656 26.3979 12.3099 28.9018 12.3099 28.9018Z" fill="white"/>
<path opacity="0.51" d="M6.58411 5.28345L3.35238 7.08889C3.35238 7.08889 -0.376716 9.34147 1.53262 12.9741L1.70234 12.7687L6.58411 5.28345Z" fill="white"/>
<path opacity="0.51" d="M18.9688 1.40903C18.9688 1.40903 17.868 -1.02238 15.1384 0.502688L13.1348 1.62172C14.41 2.17519 18.8957 4.10872 22.4457 5.64587C20.5222 3.31356 18.9688 1.40903 18.9688 1.40903Z" fill="white"/>
<path opacity="0.51" d="M28.7582 13.1312C28.5225 12.8605 28.2373 12.5415 27.9262 12.179C27.4689 13.9071 26.4435 17.779 25.5171 21.3198C27.2143 19.3863 28.4636 17.9651 28.4636 17.9651C28.4636 17.9651 31.3512 16.0316 28.7582 13.1312Z" fill="white"/>
<path opacity="0.9" d="M1.53263 12.9741C0.837259 13.8515 -1.63072 17.373 1.70235 19.4757C3.06481 20.3313 5.65772 21.796 8.45099 23.3284C6.00187 19.7682 3.06481 15.4491 1.76128 13.3729C1.67878 13.2376 1.60335 13.1046 1.53263 12.9741Z" fill="white"/>
<path opacity="0.9" d="M12.7811 1.46955C12.7811 1.46955 10.2777 -0.384226 8.83275 1.83209L6.58398 5.28345L13.1346 1.62182L12.7811 1.46955Z" fill="white"/>
<path opacity="0.9" d="M28.1621 11.2581C28.1621 11.2581 29.2817 8.53901 26.3941 7.33053C25.5715 6.98733 24.1124 6.36376 22.4458 5.63867C24.275 7.85743 26.4389 10.4581 27.9193 12.1644L28.1621 11.2581Z" fill="white"/>
<path opacity="0.9" d="M19.2635 29.1435C19.2635 29.1435 22.9761 31.1979 23.919 27.4516C24.2466 26.1561 24.8618 23.8262 25.5101 21.3198C23.4546 23.6522 20.7438 26.7193 18.8015 28.8994L19.2635 29.1435Z" fill="white"/>
<path d="M22.4458 5.64604C18.8958 4.10886 14.4101 2.17531 13.1348 1.62183L6.58419 5.2835L1.70243 12.776L1.53271 12.9815C1.60343 13.112 1.67886 13.2449 1.76843 13.3803C3.06489 15.4564 6.01139 19.7755 8.45817 23.3357C12.6846 25.6535 17.3495 28.1333 18.8086 28.8947C20.7557 26.7194 23.4617 23.6475 25.5172 21.3151C26.4436 17.7743 27.469 13.9023 27.9263 12.1742C26.4389 10.4654 24.2797 7.8648 22.4458 5.64604Z" fill="white"/>
<path d="M52.7759 19.7464L40.5185 5.67017C40.4725 5.61674 40.4159 5.574 40.3524 5.54482C40.289 5.51565 40.2202 5.5007 40.1507 5.50098H39.915C39.7845 5.50162 39.6596 5.55504 39.5673 5.64963C39.4751 5.74423 39.423 5.87235 39.4224 6.00612V25.1C39.423 25.2337 39.4751 25.3619 39.5673 25.4564C39.6596 25.551 39.7845 25.6045 39.915 25.6051H41.6546C41.7851 25.6045 41.9101 25.551 42.0023 25.4564C42.0946 25.3619 42.1467 25.2337 42.1473 25.1V11.5288L54.3058 25.4287C54.352 25.4819 54.4086 25.5244 54.472 25.5536C54.5353 25.5827 54.604 25.5978 54.6735 25.5979H54.9092C55.0399 25.5979 55.1652 25.5446 55.2576 25.4499C55.3499 25.3552 55.4019 25.2267 55.4019 25.0927V5.99887C55.4001 5.86863 55.3493 5.74413 55.2602 5.65136C55.171 5.55858 55.0503 5.50471 54.9233 5.50098H53.2733C53.2086 5.50098 53.1445 5.51405 53.0848 5.53943C53.025 5.56482 52.9707 5.60203 52.9249 5.64893C52.8792 5.69584 52.8429 5.75153 52.8181 5.81281C52.7934 5.8741 52.7806 5.93979 52.7806 6.00612L52.7759 19.7464Z" fill="white"/>
<path d="M64.4086 25.5979H73.7124C73.8594 25.5979 74.0003 25.5381 74.1041 25.4316C74.208 25.3251 74.2664 25.1806 74.2664 25.0299V23.5363C74.267 23.4612 74.2532 23.3867 74.2256 23.3171C74.1981 23.2475 74.1574 23.1841 74.106 23.1307C74.0545 23.0772 73.9932 23.0347 73.9257 23.0056C73.8582 22.9765 73.7857 22.9614 73.7124 22.961H66.5678V16.0945H73.7124C73.8594 16.0945 74.0003 16.0346 74.1041 15.9281C74.208 15.8216 74.2664 15.6771 74.2664 15.5265V14.0328C74.2664 13.8822 74.208 13.7377 74.1041 13.6312C74.0003 13.5247 73.8594 13.4648 73.7124 13.4648H66.5678V8.13062H73.7808C73.9279 8.13063 74.0691 8.07086 74.1733 7.96441C74.2776 7.85797 74.3365 7.7135 74.3371 7.56264V6.06897C74.3365 5.91811 74.2776 5.77364 74.1733 5.66719C74.0691 5.56074 73.9279 5.50098 73.7808 5.50098H64.3991C64.3336 5.50066 64.2687 5.51362 64.2081 5.53911C64.1475 5.56459 64.0924 5.60211 64.0459 5.64949C63.9995 5.69688 63.9626 5.75321 63.9375 5.81524C63.9124 5.87727 63.8994 5.94378 63.8994 6.01096V25.088C63.8997 25.1559 63.9132 25.223 63.939 25.2856C63.9649 25.3481 64.0026 25.4047 64.0499 25.4522C64.0973 25.4996 64.1534 25.5369 64.215 25.562C64.2766 25.587 64.3424 25.5992 64.4086 25.5979Z" fill="white"/>
<path d="M101.098 15.5556C101.123 14.157 100.863 12.7684 100.336 11.4784C99.8081 10.1884 99.0242 9.02524 98.0339 8.06303C95.9997 6.04246 93.4657 5.01768 90.505 5.01768C88.6459 5.00263 86.8146 5.48142 85.1895 6.40742C83.5927 7.31678 82.2665 8.65329 81.352 10.2745C80.42 11.9007 79.9315 13.754 79.9377 15.6402C79.9216 17.024 80.1869 18.3961 80.7165 19.669C81.2461 20.9419 82.0285 22.0878 83.0139 23.0336C85.0528 25.059 87.5868 26.0838 90.5569 26.0838C92.3998 26.1072 94.2173 25.6409 95.8323 24.7303L96.8789 26.0524C96.9218 26.1061 96.9763 26.1489 97.0381 26.1774C97.0998 26.2059 97.1672 26.2194 97.2348 26.2167L99.7594 26.1128C99.8225 26.1117 99.884 26.0919 99.9364 26.0558C99.9889 26.0197 100.03 25.9689 100.055 25.9094C100.08 25.8499 100.087 25.7843 100.077 25.7205C100.066 25.6566 100.038 25.5973 99.9951 25.5496L97.8996 23.1593C98.891 22.2046 99.6951 21.0643 100.269 19.7997C100.836 18.4615 101.119 17.0146 101.098 15.5556ZM98.3734 15.5386C98.3915 16.5603 98.2107 17.5754 97.8416 18.5245C97.4725 19.4736 96.9224 20.3377 96.2236 21.0662L93.9041 18.1006C93.8637 18.0472 93.8113 18.0047 93.7514 17.9765C93.6915 17.9483 93.6258 17.9353 93.56 17.9387L91.257 18.0329C91.1783 18.0366 91.1022 18.0627 91.0373 18.1083C90.9723 18.154 90.9211 18.2174 90.8895 18.2913C90.8579 18.3652 90.847 18.4468 90.8582 18.5267C90.8695 18.6066 90.9022 18.6817 90.9529 18.7435L94.1422 22.6106C92.9997 23.191 91.74 23.4874 90.465 23.4759C89.4436 23.4932 88.4291 23.3012 87.4811 22.911C86.5331 22.5209 85.6707 21.9405 84.9444 21.204C84.2092 20.49 83.6267 19.6272 83.2339 18.6703C82.8411 17.7133 82.6466 16.6831 82.6626 15.645C82.6463 14.225 83.0029 12.8266 83.6951 11.5966C84.3818 10.3827 85.3764 9.38207 86.5732 8.7011C87.774 7.99725 89.1337 7.6281 90.5168 7.6304C91.8962 7.63421 93.2513 8.003 94.451 8.7011C95.6498 9.36933 96.6519 10.3551 97.3527 11.5555C98.0391 12.7637 98.3919 14.1406 98.3734 15.5386Z" fill="white"/>
<path d="M117.78 17.5567C117.78 19.408 117.681 20.1718 117.596 20.486C117.446 21.0764 117.173 21.6264 116.795 22.0981C116.427 22.543 115.965 22.896 115.444 23.1301C114.848 23.3935 114.203 23.5202 113.554 23.5015C112.905 23.4827 112.268 23.3188 111.687 23.0214C111.102 22.7712 110.591 22.3688 110.204 21.854C109.865 21.3258 109.654 20.7214 109.591 20.092C109.521 19.249 109.496 18.4025 109.518 17.5567V6.04232C109.518 5.89681 109.462 5.75726 109.362 5.65437C109.261 5.55148 109.125 5.49367 108.983 5.49367H107.394C107.253 5.49367 107.116 5.55148 107.016 5.65437C106.916 5.75726 106.859 5.89681 106.859 6.04232V17.5567C106.859 19.5796 106.982 20.9404 107.232 21.7476C107.639 23.0582 108.487 24.1777 109.624 24.9066C110.891 25.7152 112.362 26.1245 113.853 26.0836C115.256 26.1213 116.63 25.6781 117.759 24.8244C118.761 24.0909 119.515 23.0563 119.918 21.8636C120.267 20.7639 120.444 19.3162 120.444 17.5567V6.04232C120.444 5.89681 120.388 5.75726 120.287 5.65437C120.187 5.55148 120.051 5.49367 119.909 5.49367H118.32C118.249 5.49304 118.179 5.50676 118.114 5.53404C118.048 5.56133 117.989 5.60164 117.939 5.65265C117.889 5.70366 117.849 5.76436 117.822 5.83124C117.794 5.89812 117.78 5.96986 117.78 6.04232V17.5567Z" fill="white"/>
<path d="M128.199 6.02787V25.0613C128.2 25.2039 128.255 25.3403 128.354 25.4409C128.453 25.5414 128.586 25.5979 128.725 25.5979H130.335C130.474 25.5979 130.607 25.5414 130.705 25.4407C130.803 25.3401 130.858 25.2036 130.858 25.0613V6.02787C130.859 5.8896 130.806 5.75667 130.712 5.65799C130.617 5.55932 130.489 5.50289 130.354 5.50098H128.704C128.569 5.50351 128.441 5.56014 128.346 5.65868C128.252 5.75722 128.199 5.88979 128.199 6.02787Z" fill="white"/>
</svg>
