<svg width="190" height="77" viewBox="0 0 190 77" fill="none" xmlns="http://www.w3.org/2000/svg">
<g clip-path="url(#clip0)">
<path fill-rule="evenodd" clip-rule="evenodd" d="M18.8501 62.3401C13.9701 59.8101 7.15014 55.4701 13.4101 51.3401C5.67014 56.2601 6.10014 65.0001 15.9001 76.7501L20.3701 66.0801C20.6497 65.3811 20.6476 64.601 20.3642 63.9036C20.0807 63.2062 19.5381 62.6458 18.8501 62.3401Z" fill="#6A626E"/>
<path fill-rule="evenodd" clip-rule="evenodd" d="M0.130127 42.9201C0.519615 46.6337 1.35565 50.2868 2.62013 53.8001C2.00013 47.2501 5.26013 42.7001 10.0901 39.3701C8.21013 32.8101 11.8501 30.9801 18.4201 29.3701C10.7101 31.1301 0.880127 34.0001 0.130127 42.9201Z" fill="#6A626E"/>
<path fill-rule="evenodd" clip-rule="evenodd" d="M12.06 40.2099C5.24002 44.7299 1.27002 51.5799 6.48002 62.7799C8.85626 67.9175 12.0361 72.6434 15.9 76.7799C6.10002 65 5.18002 55.2099 12.92 50.2999C18.05 47.0499 25.65 45.9 30.8 43.72C36.25 41.43 41.49 35.12 40.7 28.95C36.19 35.44 22.11 33.5399 12.06 40.2099Z" fill="#6A626E"/>
<path fill-rule="evenodd" clip-rule="evenodd" d="M1.12009 33.23C0.0805851 36.3477 -0.260806 39.6557 0.120086 42.92C0.870086 33.92 10.1201 28.92 17.8501 27.11C24.1401 25.64 31.1901 25.25 37.1301 21.9C45.1901 17.35 46.7101 8.7 46.0001 0C36.5201 13.89 8.52009 13 1.12009 33.23Z" fill="#6A626E"/>
<path d="M51.4001 27.8201H51.7501V32.7301H51.4001V27.8201Z" fill="#6A626E"/>
<path d="M51.87 32.8499H51.27V27.7H51.87V32.8499ZM51.52 32.5999H51.62V28H51.52V32.5999Z" fill="#6A626E"/>
<path d="M52.8501 30.3C52.8126 29.9894 52.8395 29.6744 52.9291 29.3746C53.0186 29.0749 53.1689 28.7967 53.3706 28.5575C53.5723 28.3183 53.821 28.1232 54.1013 27.9843C54.3817 27.8454 54.6876 27.7656 55.0001 27.75C55.53 27.7336 56.0471 27.9155 56.4501 28.26L56.2301 28.54C56.0663 28.3843 55.8733 28.2626 55.6621 28.1819C55.451 28.1012 55.226 28.0632 55.0001 28.07C54.4778 28.128 53.9994 28.3892 53.6682 28.7972C53.3369 29.2051 53.1796 29.727 53.2301 30.25C53.2301 31.57 53.9401 32.45 55.0501 32.45C55.4794 32.4479 55.8966 32.3076 56.2401 32.05V30.51H54.8601V30.19H56.5501V32.24C56.1132 32.5994 55.5658 32.7971 55.0001 32.8C54.6893 32.7927 54.3836 32.7203 54.1026 32.5873C53.8217 32.4543 53.5718 32.2639 53.3691 32.0282C53.1664 31.7925 53.0155 31.5169 52.9261 31.2192C52.8367 30.9215 52.8108 30.6084 52.8501 30.3Z" fill="#6A626E"/>
<path d="M55 32.9199C54.6719 32.9152 54.3484 32.8416 54.0506 32.7038C53.7528 32.566 53.4873 32.3671 53.2713 32.1201C53.0553 31.873 52.8938 31.5832 52.7971 31.2697C52.7004 30.9561 52.6707 30.6257 52.71 30.2999C52.6695 29.9713 52.698 29.6379 52.7937 29.321C52.8893 29.0041 53.0501 28.7106 53.2656 28.4593C53.4811 28.2081 53.7467 28.0045 54.0453 27.8617C54.344 27.7189 54.6691 27.6399 55 27.6299C55.5597 27.6114 56.1059 27.8042 56.53 28.1699L56.62 28.2399L56.25 28.7299L56.15 28.6399C55.8389 28.3485 55.4261 28.1906 55 28.1999C54.05 28.1999 53.36 29.0599 53.36 30.2499C53.36 31.4399 54 32.3599 55 32.3599C55.392 32.3565 55.7731 32.2306 56.09 31.9999V30.6399H54.73V30.0699H56.73V32.2899C56.2514 32.7072 55.6348 32.9317 55 32.9199ZM55 27.9199C54.71 27.9384 54.4269 28.0155 54.1675 28.1466C53.9082 28.2776 53.6781 28.4599 53.4912 28.6823C53.3043 28.9048 53.1644 29.1628 53.08 29.4408C52.9955 29.7188 52.9683 30.0111 53 30.2999C53 31.7399 53.8 32.6699 55 32.6699C55.5123 32.6635 56.0081 32.4877 56.41 32.1699V30.3199H55V30.3899H56.36V32.1399H56.31C55.9485 32.4174 55.5058 32.5685 55.05 32.5699C53.89 32.5699 53.11 31.6299 53.11 30.2399C53.11 28.8499 53.88 27.9999 55 27.9999C55.4425 27.987 55.8751 28.1324 56.22 28.4099L56.29 28.3399C55.9275 28.0395 55.4707 27.8766 55 27.8799V27.9199Z" fill="#6A626E"/>
<path d="M57.7002 27.8201H58.0502V32.4001H60.4202V32.7301H57.7002V27.8201Z" fill="#6A626E"/>
<path d="M60.55 32.8499H57.55V27.7H58.1501V32.2799H60.53L60.55 32.8499ZM57.82 32.5999H60.3V32.5299H57.92V28H57.82V32.5999Z" fill="#6A626E"/>
<path d="M61.32 27.8201H64.25V28.1501H61.67V30.0901H64V30.4101H61.67V32.4101H64.29V32.7401H61.29L61.32 27.8201Z" fill="#6A626E"/>
<path d="M64.4102 32.8499H61.1902V27.7H64.3802V28.27H61.7902V30H64.1202V30.57H61.7902V32.31H64.4102V32.8499ZM61.4102 32.5999H64.1302V32.5299H61.5402V30.29H63.8702V30.2199H61.5402V28H64.1302H61.4402L61.4102 32.5999Z" fill="#6A626E"/>
<path d="M65 32.1199L65.23 31.8399C65.415 32.0367 65.638 32.194 65.8855 32.3023C66.133 32.4106 66.3999 32.4676 66.67 32.4699C66.8061 32.4866 66.9442 32.475 67.0757 32.4361C67.2072 32.3971 67.3292 32.3314 67.4343 32.2433C67.5393 32.1551 67.6251 32.0463 67.6863 31.9236C67.7475 31.8009 67.7828 31.6669 67.79 31.5299C67.79 31.0699 67.56 30.7699 66.6 30.4299C65.64 30.0899 65.2 29.6599 65.2 29.0299C65.2088 28.8542 65.2528 28.682 65.3296 28.5237C65.4063 28.3654 65.5142 28.2241 65.6467 28.1084C65.7792 27.9927 65.9337 27.9048 66.1009 27.8501C66.2682 27.7954 66.4447 27.7749 66.62 27.7899C67.1462 27.7811 67.6566 27.9703 68.05 28.3199L67.83 28.6099C67.501 28.2891 67.0596 28.1096 66.6 28.1099C66.4757 28.1018 66.351 28.1185 66.2332 28.159C66.1155 28.1994 66.0069 28.2629 65.9138 28.3457C65.8208 28.4286 65.7451 28.529 65.6913 28.6413C65.6374 28.7536 65.6064 28.8755 65.6 28.9999C65.6 29.4699 65.83 29.7699 66.82 30.1099C67.81 30.4499 68.18 30.8999 68.18 31.5099C68.1725 31.6918 68.1284 31.8702 68.0502 32.0345C67.972 32.1989 67.8614 32.3457 67.725 32.4662C67.5886 32.5867 67.4293 32.6784 67.2566 32.7357C67.0839 32.7931 66.9014 32.8149 66.72 32.7999C66.4021 32.81 66.0854 32.7548 65.7896 32.6379C65.4938 32.5209 65.2251 32.3447 65 32.1199Z" fill="#6A626E"/>
<path d="M66.62 32.9201C66.2956 32.9251 65.9735 32.8648 65.6729 32.7428C65.3723 32.6209 65.0992 32.4397 64.87 32.2101L64.78 32.1301L65.17 31.6601L65.27 31.7501C65.4418 31.9375 65.6503 32.0875 65.8825 32.1907C66.1148 32.2939 66.3659 32.3482 66.62 32.3501C66.7401 32.3654 66.862 32.356 66.9784 32.3225C67.0947 32.289 67.203 32.2322 67.2966 32.1554C67.3902 32.0786 67.4672 31.9836 67.5228 31.8761C67.5784 31.7686 67.6115 31.6508 67.62 31.5301C67.62 31.1301 67.45 30.8601 66.52 30.5301C65.43 30.1401 65 29.7301 65 29.0001C65.0061 28.806 65.0517 28.6152 65.1339 28.4393C65.2162 28.2634 65.3334 28.1061 65.4784 27.977C65.6235 27.8478 65.7933 27.7496 65.9775 27.6882C66.1617 27.6269 66.3565 27.6037 66.55 27.6201C67.1064 27.6072 67.6466 27.8075 68.06 28.1801L68.15 28.2601L67.78 28.7401L67.68 28.6501C67.3698 28.355 66.9582 28.1903 66.53 28.1901C66.4186 28.1762 66.3055 28.1851 66.1977 28.2162C66.0898 28.2473 65.9893 28.3 65.9024 28.3711C65.8154 28.4421 65.7438 28.5301 65.6918 28.6296C65.6399 28.7291 65.6086 28.8381 65.6 28.9501C65.6 29.3701 65.78 29.6301 66.74 29.9501C67.7 30.2701 68.19 30.7601 68.19 31.4701C68.1892 31.6706 68.1471 31.8688 68.0664 32.0523C67.9856 32.2358 67.8679 32.4008 67.7206 32.5368C67.5733 32.6728 67.3996 32.7771 67.2102 32.843C67.0209 32.909 66.82 32.9352 66.62 32.9201ZM65.12 32.1001C65.5304 32.4722 66.0661 32.6757 66.62 32.6701C66.7882 32.6925 66.9592 32.6795 67.1221 32.6321C67.285 32.5847 67.4362 32.5038 67.566 32.3947C67.6959 32.2855 67.8016 32.1504 67.8763 31.9981C67.951 31.8458 67.9932 31.6796 68 31.5101C68 30.9901 67.78 30.6001 66.71 30.2101C65.64 29.8201 65.41 29.5601 65.41 28.9801C65.4201 28.8363 65.4588 28.696 65.5239 28.5673C65.589 28.4387 65.6792 28.3245 65.7892 28.2313C65.8991 28.1381 66.0267 28.0678 66.1642 28.0247C66.3017 27.9816 66.4465 27.9664 66.59 27.9801C67.0332 27.9763 67.4629 28.1325 67.8 28.4201L67.86 28.3301C67.5056 28.0477 67.0631 27.899 66.61 27.9101C66.4497 27.8893 66.2869 27.9013 66.1314 27.9455C65.9759 27.9896 65.8311 28.065 65.7057 28.167C65.5803 28.269 65.477 28.3955 65.4021 28.5387C65.3272 28.6819 65.2823 28.8389 65.27 29.0001C65.27 29.5301 65.49 29.9101 66.6 30.3101C67.53 30.6301 67.86 30.9501 67.86 31.5201C67.8553 31.6748 67.8188 31.8269 67.7529 31.967C67.6869 32.107 67.5929 32.232 67.4766 32.3342C67.3603 32.4364 67.2243 32.5137 67.077 32.5611C66.9296 32.6086 66.7741 32.6252 66.62 32.6101C66.0822 32.6003 65.5693 32.3815 65.19 32.0001L65.12 32.1001Z" fill="#6A626E"/>
<path d="M69.1401 27.8201H69.4901V32.7301H69.1401V27.8201Z" fill="#6A626E"/>
<path d="M69.62 32.8499H69V27.7H69.6L69.62 32.8499ZM69.27 32.5999H69.37V28H69.27V32.5999Z" fill="#6A626E"/>
<path d="M72.3502 27.79H72.7002L74.6102 32.73H74.2302L73.7202 31.35H71.3102L70.7902 32.73H70.4402L72.3502 27.79ZM73.5902 31L72.5202 28.17L71.4402 31H73.5902Z" fill="#6A626E"/>
<path d="M74.79 32.8499H74.15L73.63 31.4799H71.4L70.88 32.8499H70.26L72.26 27.6599H72.78L74.79 32.8499ZM74.32 32.5999H74.43L72.61 27.9099H72.54L73.77 31.1599H71.26L72.5 27.9099H72.44L70.62 32.5999H70.71L71.23 31.2299H73.8L74.32 32.5999ZM71.62 30.9099H73.41L72.52 28.5699L71.62 30.9099Z" fill="#6A626E"/>
<path d="M77.1702 27.8201H78.4802C78.7948 27.8135 79.1072 27.8729 79.3974 27.9946C79.6876 28.1163 79.9491 28.2975 80.1649 28.5265C80.3807 28.7555 80.5461 29.0272 80.6503 29.3241C80.7546 29.621 80.7954 29.9364 80.7702 30.2501C80.7953 30.5642 80.7545 30.8801 80.6503 31.1775C80.5461 31.4749 80.3809 31.7472 80.1653 31.977C79.9496 32.2068 79.6883 32.3889 79.3981 32.5117C79.1079 32.6345 78.7952 32.6953 78.4802 32.6901H77.1702V27.8201ZM77.5202 28.1501V32.4001H78.5202C78.7948 32.4128 79.069 32.3663 79.3242 32.2639C79.5794 32.1614 79.8095 32.0054 79.9992 31.8063C80.1888 31.6072 80.3334 31.3696 80.4233 31.1098C80.5132 30.8499 80.5462 30.5738 80.5202 30.3001V30.2501C80.5446 29.9767 80.5104 29.7013 80.4199 29.4422C80.3294 29.1831 80.1847 28.9462 79.9954 28.7475C79.8061 28.5487 79.5766 28.3926 79.3222 28.2896C79.0678 28.1866 78.7944 28.139 78.5202 28.1501H77.5202Z" fill="#6A626E"/>
<path d="M78.48 32.8499H77.05V27.6999H78.48C78.8108 27.6935 79.1392 27.7561 79.4444 27.8837C79.7496 28.0113 80.0248 28.2012 80.2525 28.4411C80.4802 28.6811 80.6554 28.9658 80.7669 29.2773C80.8784 29.5887 80.9237 29.92 80.9 30.2499C80.9295 30.5835 80.8886 30.9196 80.7798 31.2363C80.6711 31.5531 80.4969 31.8434 80.2688 32.0886C80.0406 32.3337 79.7635 32.5282 79.4553 32.6593C79.1472 32.7905 78.8149 32.8554 78.48 32.8499ZM77.3 32.5999H78.48C78.7785 32.605 79.0747 32.5477 79.3496 32.4315C79.6246 32.3154 79.8722 32.143 80.0766 31.9254C80.2809 31.7079 80.4375 31.45 80.5363 31.1683C80.635 30.8867 80.6738 30.5874 80.65 30.2899C80.674 29.9933 80.6353 29.6949 80.5363 29.4143C80.4374 29.1336 80.2805 28.8769 80.0758 28.6609C79.8711 28.4449 79.6232 28.2744 79.3483 28.1605C79.0734 28.0467 78.7775 27.9919 78.48 27.9999H77.3V32.5999ZM78.47 32.5299H77.4V27.9999H78.47C78.7567 27.9977 79.0407 28.055 79.3041 28.1683C79.5675 28.2815 79.8044 28.4483 80 28.6579C80.1955 28.8676 80.3454 29.1156 80.4401 29.3862C80.5348 29.6568 80.5722 29.9441 80.55 30.2299V30.2799C80.5869 30.5696 80.5598 30.8639 80.4708 31.142C80.3818 31.4201 80.2329 31.6754 80.0346 31.8899C79.8364 32.1043 79.5936 32.2727 79.3233 32.3833C79.053 32.4939 78.7618 32.5439 78.47 32.5299ZM77.65 32.2799H78.47C78.7263 32.2842 78.9805 32.234 79.2159 32.1326C79.4513 32.0313 79.6624 31.8811 79.8354 31.692C80.0084 31.5029 80.1393 31.2793 80.2194 31.0359C80.2995 30.7924 80.327 30.5348 80.3 30.2799V30.2299C80.327 29.9751 80.2995 29.7174 80.2194 29.474C80.1393 29.2305 80.0084 29.0069 79.8354 28.8178C79.6624 28.6287 79.4513 28.4786 79.2159 28.3772C78.9805 28.2759 78.7263 28.2257 78.47 28.2299H77.65V32.2799Z" fill="#6A626E"/>
<path d="M81.83 27.8201H84.76V28.1501H82.18V30.0901H84.5V30.4101H82.18V32.4101H84.8V32.7401H81.8L81.83 27.8201Z" fill="#6A626E"/>
<path d="M84.9202 32.8499H81.7002V27.7H84.8902V28.27H82.3002V30H84.6302V30.57H82.3002V32.31H84.9202V32.8499ZM81.9202 32.5999H84.6402V32.5299H82.0502V30.29H84.3802V30.2199H82.0502V28H84.6402H82.0002L81.9202 32.5999Z" fill="#6A626E"/>
<path d="M87.4502 27.8201H88.7602C89.0748 27.8135 89.3873 27.8729 89.6775 27.9946C89.9677 28.1163 90.2291 28.2975 90.4449 28.5265C90.6607 28.7555 90.8261 29.0272 90.9304 29.3241C91.0346 29.621 91.0754 29.9364 91.0502 30.2501C91.0753 30.5642 91.0345 30.8801 90.9303 31.1775C90.8262 31.4749 90.661 31.7472 90.4453 31.977C90.2297 32.2068 89.9684 32.3889 89.6782 32.5117C89.388 32.6345 89.0753 32.6953 88.7602 32.6901H87.4502V27.8201ZM87.8002 28.1501V32.4001H88.8002C89.0749 32.4128 89.3491 32.3663 89.6042 32.2639C89.8594 32.1614 90.0896 32.0054 90.2792 31.8063C90.4688 31.6072 90.6135 31.3696 90.7034 31.1098C90.7932 30.8499 90.8263 30.5738 90.8002 30.3001V30.2501C90.8246 29.9767 90.7904 29.7013 90.6999 29.4422C90.6094 29.1831 90.4647 28.9462 90.2754 28.7475C90.0861 28.5487 89.8566 28.3926 89.6023 28.2896C89.3479 28.1866 89.0744 28.139 88.8002 28.1501H87.8002Z" fill="#6A626E"/>
<path d="M88.7601 32.85H87.3201V27.7H88.7601C89.09 27.695 89.4173 27.7586 89.7213 27.8869C90.0253 28.0151 90.2993 28.2052 90.5259 28.4449C90.7525 28.6847 90.9268 28.969 91.0377 29.2798C91.1486 29.5905 91.1937 29.9209 91.1701 30.25C91.201 30.5831 91.1614 30.9189 91.0539 31.2357C90.9463 31.5524 90.7732 31.8429 90.5458 32.0882C90.3184 32.3336 90.0418 32.5282 89.7341 32.6595C89.4264 32.7907 89.0945 32.8556 88.7601 32.85ZM87.5701 32.6H88.7601C89.0577 32.6037 89.3528 32.5453 89.6265 32.4285C89.9003 32.3117 90.1467 32.1391 90.35 31.9218C90.5532 31.7044 90.7089 31.447 90.8071 31.166C90.9053 30.885 90.9437 30.5867 90.9201 30.29C90.9455 29.9939 90.9082 29.6957 90.8104 29.4151C90.7126 29.1344 90.5567 28.8776 90.3528 28.6614C90.1488 28.4452 89.9015 28.2745 89.6271 28.1605C89.3526 28.0466 89.0572 27.9918 88.7601 28H87.5701V32.6ZM88.7501 32.53H87.6701V28H88.7401C89.0272 27.9962 89.3119 28.0525 89.576 28.1653C89.8401 28.278 90.0777 28.4447 90.2735 28.6547C90.4694 28.8647 90.6192 29.1133 90.7133 29.3846C90.8074 29.6559 90.8438 29.9438 90.8201 30.23V30.28C90.8567 30.5688 90.8299 30.8622 90.7414 31.1396C90.6529 31.4169 90.505 31.6717 90.3079 31.8859C90.1107 32.1002 89.8692 32.2689 89.6001 32.3801C89.3311 32.4913 89.041 32.5425 88.7501 32.53ZM87.9201 32.28H88.7501C89.0059 32.2844 89.2598 32.2342 89.4947 32.1328C89.7297 32.0314 89.9403 31.881 90.1125 31.6917C90.2848 31.5025 90.4147 31.2786 90.4936 31.0352C90.5725 30.7918 90.5985 30.5343 90.5701 30.28V30.23C90.597 29.9751 90.5695 29.7175 90.4894 29.474C90.4093 29.2306 90.2785 29.0069 90.1055 28.8179C89.9325 28.6288 89.7213 28.4786 89.4859 28.3773C89.2505 28.2759 88.9963 28.2257 88.7401 28.23H87.9201V32.28Z" fill="#6A626E"/>
<path d="M92.1501 27.8201H92.5001V32.7301H92.1501V27.8201Z" fill="#6A626E"/>
<path d="M92.63 32.8499H92V27.7H92.6L92.63 32.8499ZM92.28 32.5999H92.38V28H92.28V32.5999Z" fill="#6A626E"/>
<path d="M93.6102 30.3001V30.2501C93.5542 29.9471 93.5655 29.6355 93.6434 29.3374C93.7213 29.0393 93.8638 28.762 94.0609 28.5251C94.258 28.2883 94.5048 28.0977 94.7837 27.9669C95.0627 27.8361 95.3671 27.7683 95.6752 27.7683C95.9833 27.7683 96.2877 27.8361 96.5666 27.9669C96.8456 28.0977 97.0924 28.2883 97.2895 28.5251C97.4865 28.762 97.6291 29.0393 97.707 29.3374C97.7849 29.6355 97.7962 29.9471 97.7402 30.2501C97.7962 30.5531 97.7849 30.8647 97.707 31.1628C97.6291 31.4609 97.4865 31.7382 97.2895 31.9751C97.0924 32.2119 96.8456 32.4025 96.5666 32.5333C96.2877 32.6641 95.9833 32.7319 95.6752 32.7319C95.3671 32.7319 95.0627 32.6641 94.7837 32.5333C94.5048 32.4025 94.258 32.2119 94.0609 31.9751C93.8638 31.7382 93.7213 31.4609 93.6434 31.1628C93.5655 30.8647 93.5542 30.5531 93.6102 30.2501V30.3001ZM97.3802 30.3001V30.2501C97.3802 28.9901 96.6502 28.0701 95.6702 28.0701C94.6902 28.0701 94.0002 29.0001 94.0002 30.2501C94.0002 31.5201 94.7302 32.4401 95.7202 32.4401C96.7102 32.4401 97.3802 31.5601 97.3802 30.3001Z" fill="#6A626E"/>
<path d="M95.6702 32.9301C95.3507 32.9092 95.0388 32.8235 94.7535 32.6783C94.4682 32.5331 94.2154 32.3313 94.0105 32.0853C93.8057 31.8392 93.653 31.5541 93.5618 31.2472C93.4707 30.9403 93.4429 30.6181 93.4802 30.3001V30.2501C93.4182 29.9275 93.4283 29.5952 93.5097 29.277C93.5912 28.9587 93.7419 28.6624 93.9511 28.4092C94.1603 28.156 94.4229 27.9521 94.7201 27.8121C95.0173 27.6722 95.3417 27.5996 95.6702 27.5996C95.9987 27.5996 96.3231 27.6722 96.6203 27.8121C96.9174 27.9521 97.18 28.156 97.3893 28.4092C97.5985 28.6624 97.7492 28.9587 97.8306 29.277C97.912 29.5952 97.9221 29.9275 97.8602 30.2501C97.9049 30.5719 97.8826 30.8995 97.7949 31.2123C97.7071 31.5251 97.5557 31.8164 97.3501 32.068C97.1445 32.3196 96.8892 32.526 96.6001 32.6744C96.311 32.8227 95.9944 32.9098 95.6702 32.9301ZM95.6702 27.8701C95.3787 27.8844 95.0933 27.9587 94.8319 28.0883C94.5704 28.218 94.3386 28.4002 94.1508 28.6237C93.9631 28.8471 93.8235 29.1069 93.7408 29.3867C93.6581 29.6666 93.634 29.9605 93.6702 30.2501V30.3001C93.6702 31.7001 94.4702 32.6801 95.6102 32.6801C96.7502 32.6801 97.5502 31.6801 97.5502 30.2901C97.6102 28.8501 96.8202 27.8701 95.6802 27.8701H95.6702ZM95.6702 32.6101C94.6002 32.6101 93.8302 31.6101 93.8302 30.2901C93.8302 28.9501 94.6002 27.9801 95.6602 27.9801C96.7202 27.9801 97.5002 28.9801 97.5002 30.2901V30.3401C97.5102 31.6401 96.7402 32.6101 95.6802 32.6101H95.6702ZM95.6702 28.1901C94.7602 28.1901 94.0902 29.0601 94.0902 30.2501C94.0902 31.4501 94.7602 32.3201 95.6802 32.3201C96.6002 32.3201 97.2602 31.4501 97.2602 30.2601V30.2101C97.2602 29.0601 96.5902 28.1901 95.6702 28.1901Z" fill="#6A626E"/>
<path d="M98.47 32.1199L98.7 31.8399C98.8862 32.038 99.1108 32.196 99.3601 32.3043C99.6094 32.4126 99.8782 32.469 100.15 32.4699C100.285 32.4851 100.422 32.4725 100.553 32.4328C100.683 32.3931 100.804 32.3273 100.908 32.2393C101.012 32.1513 101.096 32.0429 101.157 31.921C101.218 31.799 101.253 31.6659 101.26 31.5299C101.26 31.0699 101.04 30.7699 100.08 30.4299C99.12 30.0899 98.67 29.6599 98.67 29.0299C98.6787 28.8542 98.7228 28.682 98.7996 28.5237C98.8763 28.3654 98.9842 28.2241 99.1167 28.1084C99.2492 27.9927 99.4037 27.9048 99.5709 27.8501C99.7381 27.7954 99.9147 27.7749 100.09 27.7899C100.616 27.7811 101.127 27.9703 101.52 28.3199L101.3 28.6099C100.975 28.2887 100.537 28.109 100.08 28.1099C99.8193 28.0875 99.5602 28.1681 99.3583 28.3345C99.1564 28.5009 99.0278 28.7398 99 28.9999C99 29.4699 99.23 29.7699 100.22 30.1099C101.21 30.4499 101.58 30.8999 101.58 31.5099C101.574 31.6922 101.531 31.8714 101.453 32.0364C101.375 32.2014 101.265 32.3488 101.128 32.4696C100.991 32.5903 100.831 32.6819 100.658 32.7387C100.485 32.7955 100.302 32.8164 100.12 32.7999C99.8138 32.8006 99.5104 32.7408 99.2273 32.6242C98.9442 32.5075 98.6868 32.3361 98.47 32.1199Z" fill="#6A626E"/>
<path d="M100.14 32.9201C99.8156 32.9251 99.4936 32.8648 99.1929 32.7429C98.8923 32.6209 98.6193 32.4397 98.39 32.2101L98.3 32.1301L98.69 31.6601L98.79 31.7501C98.9637 31.9378 99.1739 32.0878 99.4079 32.191C99.6418 32.2942 99.8944 32.3484 100.15 32.3501C100.27 32.3654 100.392 32.356 100.508 32.3225C100.625 32.289 100.733 32.2322 100.827 32.1554C100.92 32.0787 100.997 31.9836 101.053 31.8761C101.108 31.7686 101.141 31.6509 101.15 31.5301C101.15 31.1301 100.97 30.8601 100.04 30.5301C98.96 30.1401 98.55 29.7301 98.55 29.0101C98.5561 28.816 98.6017 28.6252 98.684 28.4493C98.7662 28.2734 98.8834 28.1161 99.0284 27.987C99.1735 27.8578 99.3433 27.7596 99.5275 27.6983C99.7118 27.6369 99.9066 27.6137 100.1 27.6301C100.656 27.6172 101.197 27.8175 101.61 28.1901L101.7 28.2701L101.33 28.7501L101.23 28.6601C100.923 28.3665 100.515 28.2019 100.09 28.2001C99.9781 28.1862 99.8645 28.1951 99.756 28.2261C99.6475 28.2571 99.5464 28.3096 99.4587 28.3805C99.371 28.4515 99.2984 28.5393 99.2454 28.6389C99.1924 28.7385 99.1599 28.8477 99.15 28.9601C99.15 29.3801 99.33 29.6401 100.29 29.9601C101.25 30.2801 101.74 30.7701 101.74 31.4801C101.738 31.6825 101.694 31.8823 101.611 32.0669C101.528 32.2514 101.407 32.4166 101.257 32.552C101.106 32.6875 100.929 32.7901 100.737 32.8535C100.545 32.9168 100.342 32.9395 100.14 32.9201ZM98.65 32.1001C99.0558 32.4733 99.5888 32.6772 100.14 32.6701C100.305 32.6866 100.472 32.6692 100.63 32.6191C100.788 32.569 100.934 32.4871 101.06 32.3785C101.185 32.27 101.287 32.1369 101.359 31.9876C101.432 31.8383 101.473 31.6758 101.48 31.5101C101.48 30.9901 101.26 30.6001 100.19 30.2101C99.12 29.8201 98.89 29.5601 98.89 28.9801C98.9 28.8354 98.939 28.6941 99.0048 28.5648C99.0705 28.4355 99.1616 28.3207 99.2727 28.2274C99.3838 28.1341 99.5125 28.0641 99.6512 28.0216C99.7899 27.9791 99.9358 27.965 100.08 27.9801C100.52 27.9769 100.946 28.1332 101.28 28.4201L101.35 28.3301C100.99 28.0507 100.546 27.9025 100.09 27.9101C99.9329 27.895 99.7743 27.9113 99.6235 27.9582C99.4727 28.005 99.3327 28.0813 99.2117 28.1828C99.0907 28.2842 98.9911 28.4087 98.9187 28.5491C98.8463 28.6894 98.8026 28.8427 98.79 29.0001C98.79 29.5301 99.01 29.9101 100.12 30.3101C101.05 30.6301 101.39 30.9501 101.39 31.5201C101.385 31.6748 101.349 31.8269 101.283 31.967C101.217 32.107 101.123 32.232 101.007 32.3342C100.89 32.4364 100.754 32.5137 100.607 32.5611C100.46 32.6086 100.304 32.6252 100.15 32.6101C99.6118 32.6024 99.0981 32.3833 98.72 32.0001L98.65 32.1001Z" fill="#6A626E"/>
<path d="M54.1702 43.0599V49.0599H51.1702V34.8799H61.2802V37.3499H54.1702V40.5699H60.3902V43.0599H54.1702Z" fill="#6A626E"/>
<path d="M68.41 49V47.55C68.0796 48.1098 67.6017 48.5682 67.0286 48.875C66.4555 49.1818 65.8092 49.3254 65.16 49.2901C64.6655 49.2906 64.1758 49.192 63.72 49C63.2955 48.818 62.914 48.5489 62.6 48.21C62.2824 47.8565 62.0347 47.4459 61.87 47C61.6841 46.4944 61.5925 45.9588 61.6 45.42V38.55H64.37V45C64.37 46.3 64.96 46.9501 66.14 46.9501C66.4405 46.971 66.7417 46.9213 67.0195 46.8049C67.2974 46.6886 67.5441 46.5088 67.74 46.28C68.1163 45.7917 68.3076 45.1859 68.28 44.57V38.57H71V49H68.41Z" fill="#6A626E"/>
<path d="M74.35 44.5101C74.3443 45.1959 74.5737 45.8629 75 46.4001C75.2064 46.6313 75.4613 46.814 75.7466 46.935C76.0319 47.056 76.3404 47.1124 76.65 47.1001C77.0713 47.1123 77.4874 47.0048 77.85 46.7901C78.0161 46.7008 78.1621 46.5785 78.2791 46.4305C78.3961 46.2826 78.4815 46.1123 78.53 45.9301H81.38C81.1066 46.9289 80.5041 47.8063 79.67 48.4201C78.8253 49.0133 77.8119 49.3184 76.78 49.2901C73.2934 49.2901 71.5467 47.3901 71.54 43.5901C71.531 42.8455 71.6493 42.1048 71.89 41.4001C72.0968 40.7739 72.4381 40.2005 72.89 39.7201C73.334 39.2473 73.8769 38.8785 74.48 38.6401C75.1664 38.3802 75.8963 38.2546 76.63 38.2701C77.3203 38.224 78.0118 38.3401 78.6491 38.6093C79.2864 38.8785 79.8518 39.2931 80.3 39.8201C81.2307 41.1991 81.6709 42.8509 81.55 44.5101H74.35ZM78.71 42.7601C78.7042 42.4174 78.6365 42.0787 78.51 41.7601C78.3989 41.4719 78.2246 41.2122 78 41.0001C77.8098 40.8059 77.577 40.6587 77.32 40.5701C77.0667 40.4785 76.7994 40.4312 76.53 40.4301C76.2624 40.4271 75.9971 40.4798 75.7509 40.5848C75.5047 40.6898 75.2831 40.8448 75.1 41.0401C74.6669 41.4974 74.4208 42.1004 74.41 42.7301L78.71 42.7601Z" fill="#6A626E"/>
<path d="M88.8001 48.9999V42.6699C88.8754 42.0831 88.7331 41.489 88.4001 40.9999C88.2054 40.8433 87.9809 40.7279 87.7402 40.6609C87.4995 40.5938 87.2477 40.5765 87.0001 40.6099C85.5701 40.6099 84.8501 41.4099 84.8501 43.0199V49.0199H82.1001V38.5499H84.7401V40.0799C85.0212 39.5179 85.4588 39.0491 86.0001 38.7299C87.0814 38.2147 88.318 38.129 89.4601 38.4899C89.8729 38.6267 90.2491 38.8559 90.5601 39.1599C90.8762 39.4707 91.1218 39.8459 91.2801 40.2599C91.4689 40.737 91.5607 41.247 91.5501 41.7599V48.9999H88.8001Z" fill="#6A626E"/>
<path d="M98.3202 42.12H100.89V45.12C100.892 45.6591 100.811 46.1953 100.65 46.71C100.481 47.1867 100.22 47.6252 99.8801 48C99.5152 48.4023 99.0639 48.7168 98.5601 48.92C97.9565 49.1613 97.31 49.277 96.6602 49.26C95.9773 49.2845 95.2966 49.1688 94.6602 48.92C94.1681 48.7112 93.7278 48.3971 93.3702 48C93.0223 47.6139 92.7629 47.1566 92.6102 46.66C92.4561 46.1338 92.3786 45.5882 92.3801 45.04V35.71H95.1001V38.55H100.89V40.55H95.1001V44.85C95.0719 45.3915 95.2004 45.9296 95.4702 46.4C95.6128 46.5866 95.8005 46.734 96.0156 46.8284C96.2307 46.9228 96.4662 46.9612 96.7001 46.94C96.9312 46.9571 97.163 46.9178 97.3755 46.8254C97.588 46.7331 97.775 46.5905 97.9201 46.41C98.2094 45.9614 98.3494 45.4329 98.3202 44.9V42.12Z" fill="#6A626E"/>
<path d="M104.13 44.51C104.136 45.2006 104.379 45.8682 104.82 46.4C105.026 46.6312 105.281 46.8138 105.567 46.9349C105.852 47.0559 106.16 47.1123 106.47 47.1C106.891 47.1094 107.306 47.0021 107.67 46.79C107.835 46.7001 107.979 46.5774 108.094 46.4295C108.209 46.2816 108.293 46.1116 108.34 45.93H111.19C110.924 46.9294 110.324 47.8079 109.49 48.42C108.644 49.0113 107.632 49.3161 106.6 49.29C103.1 49.29 101.36 47.39 101.36 43.59C101.348 42.846 101.463 42.1053 101.7 41.4C101.911 40.7758 102.252 40.2033 102.7 39.72C103.14 39.243 103.684 38.8735 104.29 38.64C104.976 38.3801 105.706 38.2545 106.44 38.27C107.13 38.2254 107.821 38.3423 108.458 38.6114C109.095 38.8804 109.661 39.2942 110.11 39.82C111.037 41.2002 111.474 42.8519 111.35 44.51H104.13ZM108.49 42.76C108.48 42.4178 108.412 42.0798 108.29 41.76C108.183 41.4889 108.019 41.2435 107.81 41.04C107.618 40.8477 107.386 40.7008 107.13 40.61C106.876 40.5191 106.609 40.4718 106.34 40.47C106.071 40.4697 105.805 40.5236 105.558 40.6284C105.31 40.7332 105.087 40.8868 104.9 41.08C104.475 41.5424 104.23 42.1422 104.21 42.77L108.49 42.76Z" fill="#6A626E"/>
<path d="M122.56 48.9999V47.7199C122.262 48.2212 121.832 48.6308 121.317 48.9042C120.802 49.1776 120.222 49.3041 119.64 49.2699C119.009 49.2817 118.384 49.1518 117.81 48.8899C117.255 48.6341 116.766 48.2544 116.38 47.7799C115.963 47.2565 115.648 46.6595 115.45 46.0199C115.212 45.2564 115.097 44.4597 115.11 43.6599C115.101 42.9204 115.195 42.1833 115.39 41.4699C115.567 40.8529 115.855 40.2734 116.24 39.7599C116.596 39.2854 117.058 38.9016 117.59 38.6399C118.159 38.3718 118.782 38.2383 119.41 38.2499C120.023 38.2401 120.629 38.3853 121.171 38.672C121.713 38.9587 122.173 39.3776 122.51 39.8899V34.6899H125.24V48.9999H122.56ZM120.26 46.9999C120.584 47.0019 120.904 46.9278 121.194 46.7837C121.484 46.6395 121.736 46.4293 121.93 46.1699C122.399 45.5467 122.636 44.7792 122.6 43.9999C122.6 41.7299 121.83 40.5899 120.28 40.5899C118.73 40.5899 117.9 41.6699 117.9 43.8299C117.863 44.6419 118.095 45.4434 118.56 46.1099C118.746 46.3889 118.999 46.6166 119.296 46.7721C119.593 46.9277 119.925 47.006 120.26 46.9999Z" fill="#6A626E"/>
<path d="M128.54 44.51C128.546 45.2006 128.789 45.8682 129.23 46.4C129.436 46.6312 129.691 46.8138 129.977 46.9349C130.262 47.0559 130.57 47.1123 130.88 47.1C131.301 47.1094 131.716 47.0021 132.08 46.79C132.245 46.7001 132.389 46.5774 132.504 46.4295C132.62 46.2816 132.703 46.1116 132.75 45.93H135.6C135.334 46.9294 134.734 47.8079 133.9 48.42C133.054 49.0113 132.042 49.3161 131.01 49.29C127.523 49.29 125.777 47.39 125.77 43.59C125.763 42.8463 125.878 42.1065 126.11 41.4C126.321 40.7758 126.662 40.2033 127.11 39.72C127.55 39.243 128.094 38.8735 128.7 38.64C129.386 38.3801 130.116 38.2545 130.85 38.27C131.54 38.2254 132.231 38.3423 132.868 38.6114C133.505 38.8804 134.071 39.2942 134.52 39.82C135.447 41.2002 135.884 42.8519 135.76 44.51H128.54ZM132.9 42.76C132.894 42.4173 132.827 42.0785 132.7 41.76C132.593 41.4889 132.429 41.2435 132.22 41.04C132.03 40.8458 131.797 40.6986 131.54 40.61C131.287 40.5191 131.019 40.4718 130.75 40.47C130.482 40.467 130.217 40.5196 129.971 40.6246C129.725 40.7297 129.503 40.8847 129.32 41.08C128.888 41.5389 128.639 42.1401 128.62 42.77L132.9 42.76Z" fill="#6A626E"/>
<path d="M140.5 49.0001V34.8801H146.74C147.381 34.871 148.018 34.9935 148.61 35.2401C149.15 35.4671 149.634 35.8083 150.03 36.2401C150.433 36.6553 150.746 37.1488 150.95 37.6901C151.165 38.2622 151.274 38.8689 151.27 39.4801C151.274 40.0881 151.165 40.6915 150.95 41.2601C150.748 41.7876 150.434 42.2652 150.03 42.6601C149.624 43.0599 149.141 43.373 148.61 43.5801C148.013 43.8071 147.379 43.9191 146.74 43.9101H143.46V49.0001H140.5ZM146.27 41.4601C146.6 41.4913 146.933 41.456 147.249 41.3564C147.565 41.2568 147.858 41.0948 148.11 40.8801C148.49 40.467 148.691 39.9208 148.67 39.3601C148.681 39.09 148.637 38.8204 148.541 38.5677C148.444 38.3151 148.298 38.0846 148.11 37.8901C147.858 37.6754 147.565 37.5135 147.249 37.4139C146.933 37.3142 146.6 37.279 146.27 37.3101H143.46V41.4601H146.27Z" fill="#6A626E"/>
<path d="M156.23 49.2899C155.451 49.3043 154.677 49.1685 153.95 48.8899C153.312 48.6388 152.736 48.2534 152.26 47.7599C151.787 47.2542 151.426 46.6545 151.2 45.9999C150.954 45.2791 150.832 44.5216 150.84 43.7599C150.833 42.9933 150.961 42.2315 151.22 41.5099C151.442 40.854 151.807 40.2561 152.29 39.7599C152.778 39.2786 153.36 38.904 154 38.6599C154.719 38.3894 155.482 38.2571 156.25 38.2699C157.005 38.2578 157.755 38.3902 158.46 38.6599C159.094 38.9081 159.667 39.2903 160.14 39.7805C160.613 40.2706 160.975 40.8571 161.2 41.4999C161.451 42.2335 161.576 43.0044 161.57 43.7799C161.577 44.5521 161.452 45.32 161.2 46.0499C160.966 46.6938 160.601 47.2826 160.13 47.7799C159.661 48.2743 159.087 48.6571 158.45 48.8999C157.742 49.1704 156.988 49.3028 156.23 49.2899ZM156.23 46.9699C157.92 46.9699 158.76 45.9099 158.76 43.7799C158.76 41.6499 157.92 40.6099 156.23 40.6099C154.54 40.6099 153.69 41.6699 153.69 43.7799C153.69 45.8899 154.54 46.9999 156.23 46.9999V46.9699Z" fill="#6A626E"/>
<path d="M169.38 48.9999V47.7199C169.082 48.2212 168.652 48.6308 168.137 48.9042C167.622 49.1776 167.042 49.3041 166.46 49.2699C165.83 49.2793 165.205 49.1496 164.63 48.8899C164.077 48.6353 163.591 48.2552 163.21 47.7799C162.79 47.2571 162.471 46.6602 162.27 46.0199C162.032 45.2564 161.917 44.4597 161.93 43.6599C161.924 42.92 162.021 42.1828 162.22 41.4699C162.389 40.8519 162.674 40.2716 163.06 39.7599C163.42 39.2899 163.882 38.9071 164.41 38.6399C164.979 38.3718 165.602 38.2383 166.23 38.2499C166.845 38.2393 167.452 38.3841 167.996 38.6708C168.539 38.9575 169.002 39.3768 169.34 39.8899V34.6899H172V48.9999H169.38ZM167.08 46.9999C167.404 47.0027 167.724 46.929 168.015 46.7847C168.305 46.6405 168.557 46.4299 168.75 46.1699C169.219 45.5467 169.456 44.7792 169.42 43.9999C169.42 41.7299 168.65 40.5899 167.1 40.5899C165.55 40.5899 164.72 41.6699 164.72 43.8299C164.683 44.6419 164.915 45.4434 165.38 46.1099C165.566 46.3889 165.819 46.6166 166.116 46.7721C166.414 46.9277 166.745 47.006 167.08 46.9999Z" fill="#6A626E"/>
<path d="M175.36 44.5101C175.366 45.2008 175.609 45.8683 176.05 46.4001C176.256 46.6313 176.511 46.814 176.797 46.935C177.082 47.056 177.39 47.1124 177.7 47.1001C178.124 47.1109 178.543 47.0036 178.91 46.7901C179.073 46.6989 179.217 46.5757 179.332 46.428C179.447 46.2803 179.531 46.111 179.58 45.9301H182.43C182.157 46.9289 181.554 47.8063 180.72 48.4201C179.875 49.0133 178.862 49.3184 177.83 49.2901C174.337 49.2901 172.593 47.3901 172.6 43.5901C172.588 42.8461 172.703 42.1055 172.94 41.4001C173.143 40.7724 173.485 40.1982 173.94 39.7201C174.378 39.2455 174.919 38.8762 175.52 38.6401C176.207 38.3812 176.936 38.2556 177.67 38.2701C178.36 38.224 179.052 38.3401 179.689 38.6093C180.326 38.8785 180.892 39.2931 181.34 39.8201C182.271 41.1991 182.711 42.8509 182.59 44.5101H175.36ZM179.72 42.7601C179.714 42.4174 179.646 42.0787 179.52 41.7601C179.406 41.471 179.228 41.2112 179 41.0001C178.811 40.8038 178.578 40.6563 178.32 40.5701C178.07 40.4785 177.806 40.4311 177.54 40.4301C177.271 40.4263 177.004 40.4786 176.756 40.5836C176.508 40.6886 176.285 40.8441 176.1 41.0401C175.667 41.4974 175.421 42.1004 175.41 42.7301L179.72 42.7601Z" fill="#6A626E"/>
<path d="M183.11 49V38.55H185.71V39.8C185.899 39.4859 186.139 39.2054 186.42 38.97C186.651 38.7822 186.907 38.6273 187.18 38.51C187.438 38.4106 187.706 38.3434 187.98 38.31C188.257 38.2948 188.534 38.2948 188.81 38.31H189.18V41.1C188.925 41.0605 188.668 41.0405 188.41 41.04C188.066 40.9895 187.715 41.0202 187.385 41.1295C187.055 41.2388 186.755 41.4237 186.51 41.6695C186.264 41.9153 186.079 42.2152 185.97 42.5451C185.86 42.8751 185.83 43.2261 185.88 43.57V49H183.11Z" fill="#6A626E"/>
</g>
<defs>
<clipPath id="clip0">
<rect width="189.18" height="76.75" fill="white"/>
</clipPath>
</defs>
</svg>
